<svg width="16" height="20" viewBox="0 0 16 20" fill="none" xmlns="http://www.w3.org/2000/svg">
<path fill-rule="evenodd" clip-rule="evenodd" d="M7 14.5C7 13.9477 7.44772 13.5 8 13.5H11C11.5523 13.5 12 13.9477 12 14.5C12 15.0523 11.5523 15.5 11 15.5H8C7.44772 15.5 7 15.0523 7 14.5Z" fill="#F43B00"/>
<path fill-rule="evenodd" clip-rule="evenodd" d="M7 11.5C7 10.9477 7.44772 10.5 8 10.5H11C11.5523 10.5 12 10.9477 12 11.5C12 12.0523 11.5523 12.5 11 12.5H8C7.44772 12.5 7 12.0523 7 11.5Z" fill="#F43B00"/>
<path fill-rule="evenodd" clip-rule="evenodd" d="M7 8.5C7 7.94772 7.44772 7.5 8 7.5H11C11.5523 7.5 12 7.94772 12 8.5C12 9.05229 11.5523 9.5 11 9.5H8C7.44772 9.5 7 9.05229 7 8.5Z" fill="#F43B00"/>
<path d="M6 8.5C6 9.05229 5.55228 9.5 5 9.5C4.44772 9.5 4 9.05229 4 8.5C4 7.94772 4.44772 7.5 5 7.5C5.55228 7.5 6 7.94772 6 8.5Z" fill="#F43B00"/>
<path fill-rule="evenodd" clip-rule="evenodd" d="M0 3C0 1.89543 0.895431 1 2 1H5C5.55228 1 6 1.44772 6 2C6 2.55228 5.55228 3 5 3H2V18H14V3H11C10.4477 3 10 2.55228 10 2C10 1.44772 10.4477 1 11 1H14C15.1046 1 16 1.89543 16 3V18C16 19.1046 15.1046 20 14 20H2C0.895431 20 0 19.1046 0 18V3Z" fill="#F43B00"/>
<path d="M6 11.5C6 12.0523 5.55228 12.5 5 12.5C4.44772 12.5 4 12.0523 4 11.5C4 10.9477 4.44772 10.5 5 10.5C5.55228 10.5 6 10.9477 6 11.5Z" fill="#F43B00"/>
<path d="M6 14.5C6 15.0523 5.55228 15.5 5 15.5C4.44772 15.5 4 15.0523 4 14.5C4 13.9477 4.44772 13.5 5 13.5C5.55228 13.5 6 13.9477 6 14.5Z" fill="#F43B00"/>
<path fill-rule="evenodd" clip-rule="evenodd" d="M4 1C4 0.447715 4.44772 0 5 0H11C11.5523 0 12 0.447715 12 1V4C12 4.55228 11.5523 5 11 5H5C4.44772 5 4 4.55228 4 4V1ZM6 2V3H10V2H6Z" fill="#F43B00"/>
</svg>
