<svg width="25" height="31" viewBox="0 0 25 31" fill="none" xmlns="http://www.w3.org/2000/svg">
<path fill-rule="evenodd" clip-rule="evenodd" d="M12.5 3.83317C7.66755 3.83317 3.75004 7.75068 3.75004 12.5832C3.75004 14.0821 4.28079 15.7577 5.1814 17.4946C6.07545 19.2188 7.28445 20.9091 8.52161 22.4113C9.7552 23.9092 10.9929 25.1915 11.9237 26.1002C12.133 26.3045 12.3263 26.4895 12.5 26.6533C12.6738 26.4895 12.8671 26.3045 13.0764 26.1002C14.0072 25.1915 15.2449 23.9092 16.4785 22.4113C17.7156 20.9091 18.9246 19.2188 19.8187 17.4946C20.7193 15.7577 21.25 14.0821 21.25 12.5832C21.25 7.75068 17.3325 3.83317 12.5 3.83317ZM12.5 28.6248C11.551 29.7321 11.5507 29.7319 11.5504 29.7316L11.5473 29.729L11.54 29.7226L11.5144 29.7005C11.4926 29.6815 11.4614 29.6543 11.4214 29.6191C11.3414 29.5486 11.2263 29.4462 11.081 29.3142C10.7905 29.0504 10.3788 28.6681 9.88629 28.1873C8.90306 27.2274 7.58863 25.8665 6.27014 24.2655C4.95521 22.6688 3.61213 20.8043 2.59212 18.8372C1.57866 16.8826 0.833374 14.73 0.833374 12.5832C0.833374 6.13985 6.05672 0.916504 12.5 0.916504C18.9434 0.916504 24.1667 6.13985 24.1667 12.5832C24.1667 14.73 23.4214 16.8826 22.408 18.8372C21.388 20.8043 20.0449 22.6688 18.7299 24.2655C17.4114 25.8665 16.097 27.2274 15.1138 28.1873C14.6213 28.6681 14.2096 29.0504 13.9191 29.3142C13.7738 29.4462 13.6587 29.5486 13.5787 29.6191C13.5387 29.6543 13.5075 29.6815 13.4857 29.7005L13.4601 29.7226L13.4528 29.729L13.4505 29.7309C13.4502 29.7312 13.4491 29.7321 12.5 28.6248ZM12.5 28.6248L11.5504 29.7316C12.0965 30.1997 12.903 30.2002 13.4491 29.7321L12.5 28.6248ZM12.5 9.6665C10.8892 9.6665 9.58337 10.9723 9.58337 12.5832C9.58337 14.194 10.8892 15.4998 12.5 15.4998C14.1109 15.4998 15.4167 14.194 15.4167 12.5832C15.4167 10.9723 14.1109 9.6665 12.5 9.6665ZM6.66671 12.5832C6.66671 9.36151 9.27838 6.74984 12.5 6.74984C15.7217 6.74984 18.3334 9.36151 18.3334 12.5832C18.3334 15.8048 15.7217 18.4165 12.5 18.4165C9.27838 18.4165 6.66671 15.8048 6.66671 12.5832Z" fill="#F43B00"/>
</svg>
