<svg width="18" height="18" viewBox="0 0 18 18" fill="none" xmlns="http://www.w3.org/2000/svg">
<path fill-rule="evenodd" clip-rule="evenodd" d="M2.19416 2.33333C1.93974 4.09258 1.68898 8.84383 5.42256 12.5774C9.15615 16.311 13.9074 16.0602 15.6666 15.8058V12.2059L11.9701 11.5898L11.412 12.706C11.2708 12.9883 10.9823 13.1667 10.6666 13.1667V12.3333C10.6666 13.1667 10.6662 13.1667 10.6658 13.1667L10.6649 13.1667L10.6631 13.1667L10.6589 13.1666L10.6486 13.1665C10.6409 13.1664 10.6316 13.1662 10.6206 13.1658C10.5988 13.1651 10.5706 13.1638 10.5363 13.1616C10.4679 13.157 10.3754 13.1484 10.2623 13.1322C10.0363 13.0999 9.72655 13.0373 9.36145 12.9156C8.62836 12.6712 7.67919 12.1911 6.74405 11.2559C5.80892 10.3208 5.32877 9.37161 5.08441 8.63852C4.96271 8.27342 4.90002 7.96372 4.86773 7.73764C4.85157 7.62453 4.84297 7.53205 4.83841 7.46363C4.83613 7.42941 4.83485 7.40117 4.83415 7.37932C4.8338 7.3684 4.83359 7.35907 4.83346 7.35139L4.83334 7.34111L4.83332 7.3369L4.83331 7.33504L4.83331 7.33416C4.83331 7.33374 4.83331 7.33333 5.66664 7.33333H4.83331C4.83331 7.0547 4.97256 6.79451 5.20439 6.63996L7.14179 5.34836L5.93578 2.33333H2.19416ZM6.56135 7.7384L8.06629 6.73511C8.72207 6.29792 8.98196 5.46114 8.68925 4.72937L7.48324 1.71435C7.23014 1.08158 6.61729 0.666664 5.93578 0.666664H2.15062C1.39353 0.666664 0.680881 1.19263 0.556594 2.01408C0.273835 3.88292 -0.111038 9.40083 4.24405 13.7559C8.59914 18.111 14.1171 17.7261 15.9859 17.4434C16.8073 17.3191 17.3333 16.6064 17.3333 15.8493V12.2059C17.3333 11.3912 16.7443 10.6959 15.9406 10.5619L12.2441 9.94585C11.5224 9.82557 10.8066 10.1901 10.4794 10.8445L10.1906 11.422C10.0999 11.3997 9.99856 11.3711 9.8885 11.3344C9.37159 11.1621 8.6541 10.8089 7.92256 10.0774C7.19103 9.34588 6.83785 8.62839 6.66554 8.11147C6.61899 7.9718 6.58547 7.8462 6.56135 7.7384Z" fill="#F43B00"/>
</svg>
