<svg width="37" height="39" viewBox="0 0 37 39" fill="none" xmlns="http://www.w3.org/2000/svg">
<path d="M26.9665 22.8484C25.9713 22.0099 25.5117 21.7563 24.1375 20.9313C23.565 20.5882 22.6925 20.2917 22.2347 20.2917C21.9221 20.2917 21.5476 20.5308 21.3183 20.7602C20.7306 21.3478 20.538 22.0833 19.5078 22.0833C18.5 22.0833 16.7397 21.0576 15.4766 19.7318C14.1507 18.4686 13.125 16.7083 13.125 15.7005C13.125 14.6703 13.847 14.4643 14.4347 13.8757C14.664 13.6473 14.9167 13.2728 14.9167 12.9602C14.9167 12.5024 14.6201 11.6433 14.277 11.0708C13.452 9.69574 13.1994 9.23618 12.36 8.24181C12.076 7.90497 11.7526 7.75089 11.414 7.74999C10.8415 7.7491 10.0899 8.03308 9.58108 8.41202C8.81604 8.98266 8.01606 9.75935 7.80196 10.7268C7.77329 10.8585 7.75627 10.9911 7.7509 11.1237C7.70969 12.1315 8.10565 13.1546 8.53296 14.0208C9.53898 16.0624 10.8702 18.0386 12.3188 19.8034C12.7819 20.3678 13.2863 20.8928 13.8085 21.3998C14.3156 21.9212 14.8405 22.4255 15.4049 22.8896C17.1697 24.3381 19.1459 25.6693 21.1875 26.6754C22.0457 27.0982 23.0562 27.487 24.0542 27.4583C24.1966 27.4538 24.339 27.4377 24.4815 27.4064C25.449 27.1932 26.2257 26.3923 26.7963 25.6272C27.1753 25.1184 27.4592 24.3677 27.4583 23.7944C27.4574 23.4557 27.3034 23.1323 26.9665 22.8484ZM27.4583 18.5C26.9638 18.5 26.5625 18.0987 26.5625 17.6042V16.7083C26.5625 12.2632 22.9451 8.64583 18.5 8.64583C18.0055 8.64583 17.6042 8.24449 17.6042 7.74999C17.6042 7.25549 18.0055 6.85416 18.5 6.85416C23.9332 6.85416 28.3542 11.2751 28.3542 16.7083V17.6042C28.3542 18.0987 27.9528 18.5 27.4583 18.5ZM21.9561 16.7083C21.5584 16.7083 21.1947 16.4414 21.0899 16.0382C20.8444 15.0967 20.1098 14.3612 19.1719 14.1194C18.6926 13.9948 18.405 13.5066 18.5287 13.0273C18.6523 12.549 19.1396 12.2614 19.6207 12.3841C21.1866 12.79 22.4139 14.0163 22.8233 15.5858C22.9478 16.0651 22.6611 16.5533 22.1828 16.6788C22.1066 16.6985 22.0305 16.7083 21.9561 16.7083ZM24.7708 17.6042C24.2763 17.6042 23.875 17.2028 23.875 16.7083C23.875 13.8524 21.6408 11.4964 18.7885 11.3459C18.294 11.3199 17.915 10.898 17.941 10.4043C17.967 9.90985 18.3961 9.53002 18.8825 9.55689C22.6871 9.75756 25.6667 12.8992 25.6667 16.7083C25.6667 17.2028 25.2653 17.6042 24.7708 17.6042ZM18.5 0.583328C14.4688 0.583328 8.18717 0.954203 4.36017 4.44974C1.65475 7.14352 0.583334 10.9221 0.583334 15.8125C0.583334 16.2174 0.581542 16.6689 0.585125 17.1562C0.581542 17.6427 0.583334 18.0942 0.583334 18.4991C0.583334 23.3895 1.65475 27.1681 4.36017 29.8618C5.81679 31.1922 7.63354 32.0674 9.54167 32.6443V36.7526C9.54167 38.1823 10.4814 38.2083 10.6534 38.2083H10.6615C11.104 38.2065 11.4865 37.9897 11.8699 37.6493C12.0142 37.5212 13.6795 35.6651 15.4909 33.6351C16.5695 33.7041 17.5943 33.7292 18.4991 33.7292C22.5304 33.7292 28.811 33.3574 32.6389 29.8618C35.3435 27.169 36.4158 23.3895 36.4158 18.4991C36.4158 18.0942 36.4176 17.6427 36.414 17.1553C36.4176 16.668 36.4158 16.2174 36.4158 15.8116C36.4158 10.9212 35.3444 7.14262 32.6389 4.44885C28.8119 0.954203 22.5312 0.583328 18.5 0.583328ZM33.7292 18.1873V18.4991C33.7292 22.8941 32.793 25.8888 30.7855 27.9161C27.3078 31.0417 20.6831 31.0417 18.4991 31.0417C17.8344 31.0417 16.7558 31.0408 15.4828 30.9521C15.129 31.3498 11.3333 35.5952 11.3333 35.5952V30.3429C9.4485 29.8905 7.58606 29.1488 6.21454 27.917C4.20698 25.8888 3.27083 22.8941 3.27083 18.4991V18.1873C3.27083 17.8729 3.26994 17.5334 3.27263 17.1365C3.26994 16.7782 3.26994 16.4396 3.27083 16.1242V15.8125C3.27083 11.4175 4.20698 8.42277 6.21454 6.39549C9.69127 3.26993 16.3169 3.26993 18.5 3.26993C20.6831 3.26993 27.3078 3.26993 30.7846 6.39549C32.793 8.42277 33.7283 11.4175 33.7283 15.8125V16.1242C33.7283 16.4387 33.7292 16.7782 33.7265 17.1751C33.7292 17.5343 33.7292 17.8729 33.7292 18.1873Z" fill="url(#paint0_linear_74_195)"/>
<defs>
<linearGradient id="paint0_linear_74_195" x1="35.1697" y1="40.3556" x2="-0.740707" y2="-9.50644" gradientUnits="userSpaceOnUse">
<stop stop-color="#912FBD"/>
<stop offset="1" stop-color="#9332BF"/>
</linearGradient>
</defs>
</svg>
